<?xml version="1.0" standalone="no"?>
<!DOCTYPE svg PUBLIC "-//W3C//DTD SVG 20010904//EN"
 "http://www.w3.org/TR/2001/REC-SVG-20010904/DTD/svg10.dtd">
<svg version="1.0" xmlns="http://www.w3.org/2000/svg"
 width="868.000000pt" height="855.000000pt" viewBox="0 0 868.000000 855.000000"
 preserveAspectRatio="xMidYMid meet">

<g transform="translate(0.000000,855.000000) scale(0.100000,-0.100000)"
fill="#ea5550" stroke="none">
<path d="M4115 8540 c-961 -52 -1875 -419 -2600 -1043 -44 -38 -142 -131 -219
-206 -557 -548 -951 -1232 -1146 -1989 -335 -1295 -51 -2685 764 -3731 499
-642 1136 -1113 1899 -1405 185 -71 559 -180 507 -148 -8 6 -67 24 -131 41
-565 150 -1139 450 -1613 845 -829 689 -1378 1689 -1516 2761 -35 277 -42 678
-15 958 94 990 515 1898 1209 2605 234 239 428 401 686 574 624 418 1315 656
2084 719 268 21 695 4 981 -41 1103 -172 2106 -772 2780 -1665 327 -434 567
-919 711 -1439 316 -1144 152 -2364 -453 -3376 -148 -246 -298 -448 -504 -678
-61 -68 -109 -125 -106 -128 6 -7 204 214 302 336 985 1235 1210 2951 578
4410 -429 990 -1241 1806 -2227 2239 -615 270 -1307 396 -1971 361z"/>
<path d="M4118 7058 c-49 -6 -88 -14 -88 -19 0 -5 10 -7 23 -4 12 3 76 9 142
15 361 30 741 -14 1088 -125 740 -238 1342 -754 1682 -1440 288 -583 371
-1221 241 -1845 -225 -1077 -1042 -1924 -2108 -2184 -619 -151 -1261 -92
-1844 170 -895 404 -1504 1221 -1651 2219 -22 151 -25 571 -4 715 32 232 89
458 168 668 19 52 32 96 30 99 -8 8 -84 -197 -121 -327 -76 -269 -106 -491
-106 -780 0 -392 65 -729 209 -1085 257 -635 743 -1159 1361 -1469 384 -192
765 -289 1190 -303 681 -22 1341 197 1880 623 108 86 355 333 443 444 316 397
519 864 598 1380 33 210 33 610 0 819 -75 485 -269 946 -555 1319 -457 597
-1104 977 -1866 1097 -128 20 -581 28 -712 13z"/>
</g>
</svg>
