<?xml version="1.0" standalone="no"?>
<!DOCTYPE svg PUBLIC "-//W3C//DTD SVG 20010904//EN"
 "http://www.w3.org/TR/2001/REC-SVG-20010904/DTD/svg10.dtd">
<svg version="1.0" xmlns="http://www.w3.org/2000/svg"
 width="133.000000pt" height="134.000000pt" viewBox="0 0 133.000000 134.000000"
 preserveAspectRatio="xMidYMid meet">

<g transform="translate(0.000000,134.000000) scale(0.100000,-0.100000)"
fill="#ea5550" stroke="none">
<path d="M575 1330 c-141 -20 -270 -85 -376 -191 -63 -62 -85 -93 -122 -170
-56 -116 -70 -178 -70 -294 0 -116 14 -178 70 -294 99 -206 293 -338 541 -366
l52 -6 0 31 c0 29 -2 30 -42 30 -106 1 -248 56 -343 133 -300 244 -300 700 0
944 243 197 599 174 814 -53 43 -44 84 -101 105 -142 31 -62 42 -93 60 -175 6
-23 10 -27 29 -21 12 3 24 8 26 10 10 9 -26 120 -66 203 -119 250 -401 399
-678 361z"/>
<path d="M588 1190 c-288 -51 -477 -306 -438 -589 27 -195 177 -369 367 -426
232 -70 503 45 608 259 77 156 81 315 10 463 -96 203 -335 331 -547 293z"/>
</g>
</svg>
